# xmcd CD database file
#
# Track frame offsets:
#	150
#	17915
#	29837
#	51360
#	71540
#	87037
#	105355
#	125095
#
# Disc length: 1984 seconds
#
# Revision: 1
# Processed by: cddbd v1.5.1PL0 Copyright (c) Steve Scherf et al.
# Submitted via: CDex 1.51
#
DISCID=6a07be08
DTITLE=永野護・川村万梨阿 - SUPER NOVA
DYEAR=1987
DGENRE=Other
TTITLE0=CITY PEOPLE
TTITLE1=DOUGHTER
TTITLE2=MACHINE CHILD
TTITLE3=FLYING
TTITLE4=MECHANIC DESTROYED COMMANDER
TTITLE5=FACE'S TOMORROW
TTITLE6=THE SUCCESSOR
TTITLE7=DANCIN' EYES
EXTD=YEAR: 1987
EXTT0=
EXTT1=
EXTT2=
EXTT3=
EXTT4=
EXTT5=
EXTT6=
EXTT7=
PLAYORDER=
